<svg version="1.0" preserveAspectRatio="xMidYMid meet" height="300" viewBox="0 0 750 225" zoomAndPan="magnify" width="1000" xmlns:xlink="http://www.w3.org/1999/xlink" xmlns="http://www.w3.org/2000/svg" xmlns:c2pa="http://c2pa.org/manifest"><metadata><c2pa:manifest>AAAWgmp1bWIAAAAeanVtZGMycGEAEQAQgAAAqgA4m3EDYzJwYQAAABZcanVtYgAAAEdqdW1kYzJtYQARABCAAACqADibcQN1cm46YzJwYTo4MDgwOGRiYS0zM2Q3LTQyYmEtYjIyNC04YmU5NjhmMzg3NWYAAAADl2p1bWIAAAApanVtZGMyYXMAEQAQgAAAqgA4m3EDYzJwYS5hc3NlcnRpb25zAAAAALxqdW1iAAAARGp1bWRjYm9yABEAEIAAAKoAOJtxE2MycGEuaW5ncmVkaWVudC52MwAAAAAYYzJzaP6KucZoWtZXKvcSxiBzb9QAAABwY2JvcqNpZGM6Zm9ybWF0bWltYWdlL3N2Zyt4bWxqaW5zdGFuY2VJRHgseG1wOmlpZDplNTM1NDI0OC1iZGExLTRhOWYtYTMxNC05NmFhYmY1OWU4MmRscmVsYXRpb25zaGlwaHBhcmVudE9mAAAB4mp1bWIAAABBanVtZGNib3IAEQAQgAAAqgA4m3ETYzJwYS5hY3Rpb25zLnYyAAAAABhjMnNoqwkrs27Eu8xe7nQqkbVTzwAAAZljYm9yomdhY3Rpb25zgqJmYWN0aW9ua2MycGEub3BlbmVkanBhcmFtZXRlcnOha2luZ3JlZGllbnRzgaJjdXJseC1zZWxmI2p1bWJmPWMycGEuYXNzZXJ0aW9ucy9jMnBhLmluZ3JlZGllbnQudjNkaGFzaFggirCWOx8DhNqwKUU4jCg8/JaLMbY8s7gGhPVAT33MthOkZmFjdGlvbngdY29tLmFudGhyb3BpYy5jbGF1ZGUucHJvdmlkZWRqcGFyYW1ldGVyc6F4H2NvbS5hbnRocm9waWMub3JpZ2luLWNvbmZpZGVuY2VndW5rbm93bmtkZXNjcmlwdGlvbnhmQ2xhdWRlIHByb3ZpZGVkIHRoaXMgZmlsZSBhdCB0aGUgcmVxdWVzdCBvZiBhIHVzZXIgYW5kIG1heSBoYXZlIGNyZWF0ZWQgb3IgbW9kaWZpZWQgdGhlIGZpbGUgY29udGVudHMubXNvZnR3YXJlQWdlbnShZG5hbWVmQ2xhdWRlcmFsbEFjdGlvbnNJbmNsdWRlZPUAAADIanVtYgAAAEBqdW1kY2JvcgARABCAAACqADibcRNjMnBhLmhhc2guZGF0YQAAAAAYYzJzaHHgaGoYe9Wg5Vs+7Zyr2PoAAACAY2JvcqVjYWxnZnNoYTI1NmNwYWRMAAAAAAAAAAAAAAAAZGhhc2hYIME8+dBCGp5ohur2kKoR4NjV2eZ9A5dFFwdfohvSukfXZG5hbWVuanVtYmYgbWFuaWZlc3RqZXhjbHVzaW9uc4GiZXN0YXJ0GQEJZmxlbmd0aBkeBAAAAj5qdW1iAAAAJ2p1bWRjMmNsABEAEIAAAKoAOJtxA2MycGEuY2xhaW0udjIAAAACD2Nib3KlY2FsZ2ZzaGEyNTZpc2lnbmF0dXJleE1zZWxmI2p1bWJmPS9jMnBhL3VybjpjMnBhOjgwODA4ZGJhLTMzZDctNDJiYS1iMjI0LThiZTk2OGYzODc1Zi9jMnBhLnNpZ25hdHVyZWppbnN0YW5jZUlEeCx4bXA6aWlkOjhhZDYwODM3LTA4ZWEtNGEwZS1hNjczLWI1ZjQzMzgyNDU5OHJjcmVhdGVkX2Fzc2VydGlvbnODomN1cmx4LXNlbGYjanVtYmY9YzJwYS5hc3NlcnRpb25zL2MycGEuaW5ncmVkaWVudC52M2RoYXNoWCCKsJY7HwOE2rApRTiMKDz8losxtjyzuAaE9UBPfcy2E6JjdXJseCpzZWxmI2p1bWJmPWMycGEuYXNzZXJ0aW9ucy9jMnBhLmFjdGlvbnMudjJkaGFzaFggjv6J3SEKls1sBx7piWFAIHPepKCC0lc3z4PtYMlfy2miY3VybHgpc2VsZiNqdW1iZj1jMnBhLmFzc2VydGlvbnMvYzJwYS5oYXNoLmRhdGFkaGFzaFggh8P87F61/QxaIrdnFaicpxvVBUC+xWgW0VWq6QN4OPB0Y2xhaW1fZ2VuZXJhdG9yX2luZm+jZG5hbWVvQW50aHJvcGljIEZpbGVzZ3ZlcnNpb25lMS4wLjBrc3BlY1ZlcnNpb25lMi40LjAAABA4anVtYgAAAChqdW1kYzJjcwARABCAAACqADibcQNjMnBhLnNpZ25hdHVyZQAAABAIY2JvctKEWQISogEmGCFZAgowggIGMIIBjaADAgECAhRA5aAK7sI50L64g/oGQgU9Z1UTADAKBggqhkjOPQQDAzBJMRcwFQYDVQQKEw5BbnRocm9waWMsIFBCQzEuMCwGA1UEAxMlQW50aHJvcGljIENvbnRlbnQgQ3JlZGVudGlhbHMgUm9vdCBDQTAeFw0yNjA4MDcxODQzNTZaFw0yODA4MDYxOTQzNTZaMEQxFzAVBgNVBAoTDkFudGhyb3BpYywgUEJDMSkwJwYDVQQDEyBBbnRocm9waWMgQ2xhdWRlIENvbnRlbnQgU2lnbmluZzBZMBMGByqGSM49AgEGCCqGSM49AwEHA0IABJh6CmvLUBgFFNU0vUKlOVtE6djd17L5SuwX0LemFisBM3dkd/3cyjxFA3Qo5S46fX0/ihY0VZ7mfb9KF703t5OjWDBWMA4GA1UdDwEB/wQEAwIHgDAVBgNVHSUEDjAMBgorBgEEAYPoXgIBMAwGA1UdEwEB/wQCMAAwHwYDVR0jBBgwFoAUzlHiBIFOZFsj+OPEz5o+nMHXXMIwCgYIKoZIzj0EAwMDZwAwZAIwMXMdFJ4BetLLVY7ORuE9noqbbAZOZn/aArXyTwFAZfKrPzxF2vPoJNf1+UCdg1XGAjBwX1zd9WGqYkqmL5SFqw1QySjr1zJfpJM9+1rdDwSPLMOPOjKuiXjoU/pUUeG9RwmhY3BhZFkNngAAAAAAAAAAAAAAAAAAAAAAAAAAAAAAAAAAAAAAAAAAAAAAAAAAAAAAAAAAAAAAAAAAAAAAAAAAAAAAAAAAAAAAAAAAAAAAAAAAAAAAAAAAAAAAAAAAAAAAAAAAAAAAAAAAAAAAAAAAAAAAAAAAAAAAAAAAAAAAAAAAAAAAAAAAAAAAAAAAAAAAAAAAAAAAAAAAAAAAAAAAAAAAAAAAAAAAAAAAAAAAAAAAAAAAAAAAAAAAAAAAAAAAAAAAAAAAAAAAAAAAAAAAAAAAAAAAAAAAAAAAAAAAAAAAAAAAAAAAAAAAAAAAAAAAAAAAAAAAAAAAAAAAAAAAAAAAAAAAAAAAAAAAAAAAAAAAAAAAAAAAAAAAAAAAAAAAAAAAAAAAAAAAAAAAAAAAAAAAAAAAAAAAAAAAAAAAAAAAAAAAAAAAAAAAAAAAAAAAAAAAAAAAAAAAAAAAAAAAAAAAAAAAAAAAAAAAAAAAAAAAAAAAAAAAAAAAAAAAAAAAAAAAAAAAAAAAAAAAAAAAAAAAAAAAAAAAAAAAAAAAAAAAAAAAAAAAAAAAAAAAAAAAAAAAAAAAAAAAAAAAAAAAAAAAAAAAAAAAAAAAAAAAAAAAAAAAAAAAAAAAAAAAAAAAAAAAAAAAAAAAAAAAAAAAAAAAAAAAAAAAAAAAAAAAAAAAAAAAAAAAAAAAAAAAAAAAAAAAAAAAAAAAAAAAAAAAAAAAAAAAAAAAAAAAAAAAAAAAAAAAAAAAAAAAAAAAAAAAAAAAAAAAAAAAAAAAAAAAAAAAAAAAAAAAAAAAAAAAAAAAAAAAAAAAAAAAAAAAAAAAAAAAAAAAAAAAAAAAAAAAAAAAAAAAAAAAAAAAAAAAAAAAAAAAAAAAAAAAAAAAAAAAAAAAAAAAAAAAAAAAAAAAAAAAAAAAAAAAAAAAAAAAAAAAAAAAAAAAAAAAAAAAAAAAAAAAAAAAAAAAAAAAAAAAAAAAAAAAAAAAAAAAAAAAAAAAAAAAAAAAAAAAAAAAAAAAAAAAAAAAAAAAAAAAAAAAAAAAAAAAAAAAAAAAAAAAAAAAAAAAAAAAAAAAAAAAAAAAAAAAAAAAAAAAAAAAAAAAAAAAAAAAAAAAAAAAAAAAAAAAAAAAAAAAAAAAAAAAAAAAAAAAAAAAAAAAAAAAAAAAAAAAAAAAAAAAAAAAAAAAAAAAAAAAAAAAAAAAAAAAAAAAAAAAAAAAAAAAAAAAAAAAAAAAAAAAAAAAAAAAAAAAAAAAAAAAAAAAAAAAAAAAAAAAAAAAAAAAAAAAAAAAAAAAAAAAAAAAAAAAAAAAAAAAAAAAAAAAAAAAAAAAAAAAAAAAAAAAAAAAAAAAAAAAAAAAAAAAAAAAAAAAAAAAAAAAAAAAAAAAAAAAAAAAAAAAAAAAAAAAAAAAAAAAAAAAAAAAAAAAAAAAAAAAAAAAAAAAAAAAAAAAAAAAAAAAAAAAAAAAAAAAAAAAAAAAAAAAAAAAAAAAAAAAAAAAAAAAAAAAAAAAAAAAAAAAAAAAAAAAAAAAAAAAAAAAAAAAAAAAAAAAAAAAAAAAAAAAAAAAAAAAAAAAAAAAAAAAAAAAAAAAAAAAAAAAAAAAAAAAAAAAAAAAAAAAAAAAAAAAAAAAAAAAAAAAAAAAAAAAAAAAAAAAAAAAAAAAAAAAAAAAAAAAAAAAAAAAAAAAAAAAAAAAAAAAAAAAAAAAAAAAAAAAAAAAAAAAAAAAAAAAAAAAAAAAAAAAAAAAAAAAAAAAAAAAAAAAAAAAAAAAAAAAAAAAAAAAAAAAAAAAAAAAAAAAAAAAAAAAAAAAAAAAAAAAAAAAAAAAAAAAAAAAAAAAAAAAAAAAAAAAAAAAAAAAAAAAAAAAAAAAAAAAAAAAAAAAAAAAAAAAAAAAAAAAAAAAAAAAAAAAAAAAAAAAAAAAAAAAAAAAAAAAAAAAAAAAAAAAAAAAAAAAAAAAAAAAAAAAAAAAAAAAAAAAAAAAAAAAAAAAAAAAAAAAAAAAAAAAAAAAAAAAAAAAAAAAAAAAAAAAAAAAAAAAAAAAAAAAAAAAAAAAAAAAAAAAAAAAAAAAAAAAAAAAAAAAAAAAAAAAAAAAAAAAAAAAAAAAAAAAAAAAAAAAAAAAAAAAAAAAAAAAAAAAAAAAAAAAAAAAAAAAAAAAAAAAAAAAAAAAAAAAAAAAAAAAAAAAAAAAAAAAAAAAAAAAAAAAAAAAAAAAAAAAAAAAAAAAAAAAAAAAAAAAAAAAAAAAAAAAAAAAAAAAAAAAAAAAAAAAAAAAAAAAAAAAAAAAAAAAAAAAAAAAAAAAAAAAAAAAAAAAAAAAAAAAAAAAAAAAAAAAAAAAAAAAAAAAAAAAAAAAAAAAAAAAAAAAAAAAAAAAAAAAAAAAAAAAAAAAAAAAAAAAAAAAAAAAAAAAAAAAAAAAAAAAAAAAAAAAAAAAAAAAAAAAAAAAAAAAAAAAAAAAAAAAAAAAAAAAAAAAAAAAAAAAAAAAAAAAAAAAAAAAAAAAAAAAAAAAAAAAAAAAAAAAAAAAAAAAAAAAAAAAAAAAAAAAAAAAAAAAAAAAAAAAAAAAAAAAAAAAAAAAAAAAAAAAAAAAAAAAAAAAAAAAAAAAAAAAAAAAAAAAAAAAAAAAAAAAAAAAAAAAAAAAAAAAAAAAAAAAAAAAAAAAAAAAAAAAAAAAAAAAAAAAAAAAAAAAAAAAAAAAAAAAAAAAAAAAAAAAAAAAAAAAAAAAAAAAAAAAAAAAAAAAAAAAAAAAAAAAAAAAAAAAAAAAAAAAAAAAAAAAAAAAAAAAAAAAAAAAAAAAAAAAAAAAAAAAAAAAAAAAAAAAAAAAAAAAAAAAAAAAAAAAAAAAAAAAAAAAAAAAAAAAAAAAAAAAAAAAAAAAAAAAAAAAAAAAAAAAAAAAAAAAAAAAAAAAAAAAAAAAAAAAAAAAAAAAAAAAAAAAAAAAAAAAAAAAAAAAAAAAAAAAAAAAAAAAAAAAAAAAAAAAAAAAAAAAAAAAAAAAAAAAAAAAAAAAAAAAAAAAAAAAAAAAAAAAAAAAAAAAAAAAAAAAAAAAAAAAAAAAAAAAAAAAAAAAAAAAAAAAAAAAAAAAAAAAAAAAAAAAAAAAAAAAAAAAAAAAAAAAAAAAAAAAAAAAAAAAAAAAAAAAAAAAAAAAAAAAAAAAAAAAAAAAAAAAAAAAAAAAAAAAAAAAAAAAAAAAAAAAAAAAAAAAAAAAAAAAAAAAAAAAAAAAAAAAAAAAAAAAAAAAAAAAAAAAAAAAAAAAAAAAAAAAAAAAAAAAAAAAAAAAAAAAAAAAAAAAAAAAAAAAAAAAAAAAAAAAAAAAAAAAAAAAAAAAAAAAAAAAAAAAAAAAAAAAAAAAAAAAAAAAAAAAAAAAAAAAAAAAAAAAAAAAAAAAAAAAAAAAAAAAAAAAAAAAAAAAAAAAAAAAAAAAAAAAAAAAAAAAAAAAAAAAAAAAAAAAAAAAAAAAAAAAAAAAAAAAAAAAAAAAAAAAAAAAAAAAAAAAAAAAAAAAAAAAAAAAAAAAAAAAAAAAAAAAAAAAAAAAAAAAAAAAAAAAAAAAAAAAAAAAAAAAAAAAAAAAAAAAAAAAAAAAAAAAAAAAAAAAAAAAAAAAAAAAAAAAAAAAAAAAAAAAAAAAAAAAAAAAAAAAAAAAAAAAAAAAAAAAAAAAAAAAAAAAAAAAAAAAAAAAAAAAAAAAAAAAAAAAAAAAAAAAAAAAAAAAAAAAAAAAAAAAAAAAAAAAAAAAAAAAAAAAAAAAAAAAAAAAAAAAAAAAAAAAAAAAAAAAAAAAAAAAAAAAAAAAAAAAAAAAAAAAAAAAAAAAAAAAAAAAAAAAAAAAAAAAAAAAAAAAAAAAAAAAAAAAAAAAAAAAAAAAAAAAAAAAAAAAAAAAAAAAAAAAAAAAAAAAAAAAAAAAAAAAAAAAAAAAAAAAAAAAAAAAAAAAAAAAAAAAAAAAAAAAAAAAAAAAAAAAAAAAAAAAAAAAAAAAAAAAAAAAAAAAAAAAAAAAAAAAAAAAAAAAAAAAAAAAAAAAAAAAAAAAAAAAAAAAAAAAAAAAAAAAAAAAAAAAAAAAAAAAAAAAAAAAAAAAAAAAAAAAAAAAAAAAAAAAAAAAAAAAAAAAAAAAAAAAAAAAAAAAAAAAAAAAAAAAAAAAAAAAAAAAAAAAAAAAAAAAAAAAAAAAAAAAAAAAAAAAAAAAAAAAAAAAAAAAAAAAAAAAAAAAAAAAAAAAAAAAAAAAAAAAAAAAAAAAAAAAAAAAAAAAAAAAAAAAAAAAAAAAAAAAAAAAAAAAAAAAAAAAAAAAAAAAAAAAAAAAAAAAAAAAAAAAAAAAAAAAAAAAAAAAAAAAAAAAAAAAAAAAAAAAAAAAAAAAAAAAAAAAAAAAAAAAAAAAAAAAAAAAAAAAAAAAAAAAAAAAAAAAAAAAAAAAAAAAAAAAAAAAAAAAAAAAAAAAAAAAAAAAAAAAAAAAAAAAAAAAAAAAAAAAAAAAAAAAAAAAAAAAAAAAAAAAAAAAAAAAAAAAAAAAAAAAAAAAAAAAAAAAAAAAAAAAAAAAAAAAAAAAAAAAAAAAAAAAAAAAAAAAAAAAAAAAAAAAAAAAAAAAAAAAAAAAAAAAAAAAAAAAAAAAAAAAAAAAAAAAAAAAAAAAAAAAAAAAAAAAAAAAAAAAAPZYQJSRnU4DwX34THeUFydKvu1yFzu3Iu6SYS4QO1YStrhxB4vGvYIjpIsVbfQrpPP8/a7tvSYLu3sW7ShGjA2ZmIo=</c2pa:manifest></metadata><defs><g></g><clipPath id="6d20de3e0c"><rect height="225" y="0" width="645" x="0"></rect></clipPath></defs><g transform="matrix(1, 0, 0, 1, 46, -0.000000000000008531)"><g clip-path="url(#6d20de3e0c)"><g fill-opacity="1" fill="#000000"><g transform="translate(0.731132, 204.606132)"><g><path d="M 5.203125 0 L 69.9375 -184.765625 L 111.84375 -184.765625 L 177.6875 0 L 141.484375 0 L 108.75 -96.21875 C 105.519531 -106.226562 102.148438 -117.367188 98.640625 -129.640625 C 95.128906 -141.921875 91.222656 -156.035156 86.921875 -171.984375 L 94.359375 -171.984375 C 90.148438 -155.953125 86.347656 -141.753906 82.953125 -129.390625 C 79.566406 -117.035156 76.34375 -105.976562 73.28125 -96.21875 L 41.171875 0 Z M 43.03125 -45.390625 L 43.03125 -72.171875 L 139.75 -72.171875 L 139.75 -45.390625 Z M 43.03125 -45.390625"></path></g></g></g><g fill-opacity="1" fill="#000000"><g transform="translate(152.682366, 204.606132)"><g><path d="M 55.296875 0 L 4.21875 -136.890625 L 38.4375 -136.890625 L 63.484375 -63.109375 C 66.296875 -54.679688 68.773438 -46.164062 70.921875 -37.5625 C 73.078125 -28.96875 75.269531 -20.332031 77.5 -11.65625 L 69.6875 -11.65625 C 71.914062 -20.332031 74.082031 -28.945312 76.1875 -37.5 C 78.300781 -46.0625 80.722656 -54.597656 83.453125 -63.109375 L 108.375 -136.890625 L 142.234375 -136.890625 L 91.015625 0 Z M 55.296875 0"></path></g></g></g><g fill-opacity="1" fill="#000000"><g transform="translate(285.413498, 204.606132)"><g><path d="M 16.375 0 L 16.375 -136.890625 L 47.375 -136.890625 L 47.375 -114.078125 L 48.609375 -114.078125 C 51.085938 -122.015625 55.300781 -128.085938 61.25 -132.296875 C 67.207031 -136.515625 74.238281 -138.625 82.34375 -138.625 C 84.238281 -138.625 86.238281 -138.5625 88.34375 -138.4375 C 90.457031 -138.320312 92.257812 -138.140625 93.75 -137.890625 L 93.75 -108.625 C 92.425781 -108.957031 90.296875 -109.285156 87.359375 -109.609375 C 84.421875 -109.941406 81.503906 -110.109375 78.609375 -110.109375 C 72.910156 -110.109375 67.765625 -108.867188 63.171875 -106.390625 C 58.585938 -103.910156 54.972656 -100.414062 52.328125 -95.90625 C 49.679688 -91.40625 48.359375 -86.054688 48.359375 -79.859375 L 48.359375 0 Z M 16.375 0"></path></g></g></g><g fill-opacity="1" fill="#000000"><g transform="translate(365.444291, 204.606132)"><g><path d="M 76.140625 2.859375 C 62.828125 2.859375 51.226562 -0.09375 41.34375 -6 C 31.46875 -11.914062 23.820312 -20.1875 18.40625 -30.8125 C 13 -41.4375 10.296875 -53.816406 10.296875 -67.953125 C 10.296875 -82.085938 13 -94.488281 18.40625 -105.15625 C 23.820312 -115.820312 31.46875 -124.109375 41.34375 -130.015625 C 51.226562 -135.921875 62.828125 -138.875 76.140625 -138.875 C 89.523438 -138.875 101.15625 -135.921875 111.03125 -130.015625 C 120.914062 -124.109375 128.566406 -115.820312 133.984375 -105.15625 C 139.398438 -94.488281 142.109375 -82.085938 142.109375 -67.953125 C 142.109375 -53.816406 139.398438 -41.4375 133.984375 -30.8125 C 128.566406 -20.1875 120.914062 -11.914062 111.03125 -6 C 101.15625 -0.09375 89.523438 2.859375 76.140625 2.859375 Z M 76.140625 -23.3125 C 83.492188 -23.3125 89.648438 -25.273438 94.609375 -29.203125 C 99.566406 -33.128906 103.304688 -38.457031 105.828125 -45.1875 C 108.347656 -51.925781 109.609375 -59.515625 109.609375 -67.953125 C 109.609375 -76.546875 108.347656 -84.210938 105.828125 -90.953125 C 103.304688 -97.691406 99.566406 -103.003906 94.609375 -106.890625 C 89.648438 -110.773438 83.492188 -112.71875 76.140625 -112.71875 C 68.859375 -112.71875 62.738281 -110.773438 57.78125 -106.890625 C 52.820312 -103.003906 49.101562 -97.691406 46.625 -90.953125 C 44.144531 -84.210938 42.90625 -76.546875 42.90625 -67.953125 C 42.90625 -59.515625 44.144531 -51.925781 46.625 -45.1875 C 49.101562 -38.457031 52.820312 -33.128906 57.78125 -29.203125 C 62.738281 -25.273438 68.859375 -23.3125 76.140625 -23.3125 Z M 76.140625 -23.3125"></path></g></g></g><g fill-opacity="1" fill="#000000"><g transform="translate(504.127482, 204.606132)"><g><path d="M 48.359375 -79.609375 L 48.359375 0 L 16.375 0 L 16.375 -136.890625 L 47 -136.890625 L 47.375 -102.921875 L 44.015625 -102.921875 C 47.898438 -114.828125 53.625 -123.796875 61.1875 -129.828125 C 68.757812 -135.859375 78.207031 -138.875 89.53125 -138.875 C 98.957031 -138.875 107.222656 -136.847656 114.328125 -132.796875 C 121.441406 -128.753906 126.957031 -122.847656 130.875 -115.078125 C 134.800781 -107.304688 136.765625 -97.835938 136.765625 -86.671875 L 136.765625 0 L 104.78125 0 L 104.78125 -81.71875 C 104.78125 -91.144531 102.398438 -98.457031 97.640625 -103.65625 C 92.890625 -108.863281 86.257812 -111.46875 77.75 -111.46875 C 72.125 -111.46875 67.097656 -110.25 62.671875 -107.8125 C 58.253906 -105.375 54.765625 -101.800781 52.203125 -97.09375 C 49.640625 -92.382812 48.359375 -86.554688 48.359375 -79.609375 Z M 48.359375 -79.609375"></path></g></g></g></g></g></svg>